# xmcd CD database file
#
# Track frame offsets:
#	150
#	15680
#	33418
#	46295
#	59898
#	77016
#	93024
#	103786
#	121621
#	134991
#	150826
#	161978
#
# Disc length: 2348 seconds
#
# Revision: 0
# Processed by: cddbd v1.5.2PL0 Copyright (c) Steve Scherf et al.
# Submitted via: CDex 1.51
#
DISCID=98092a0c
DTITLE=Dwight Yoakam - Greatest Hits - Disc 3
DYEAR=2006
DGENRE=Country
TTITLE0=Sorry You Asked
TTITLE1=Nothing
TTITLE2=Gone (That'll Be Me)
TTITLE3=Claudette
TTITLE4=Things Change
TTITLE5=These Arms
TTITLE6=Crazy Little Thing Called Love
TTITLE7=Thinking About Leaving
TTITLE8=What Do You Know About Love
TTITLE9=I Want You To Want Me
TTITLE10=The Late Great Golden State
TTITLE11=The Back Of Your Hand
EXTD=YEAR: 2006
EXTT0=
EXTT1=
EXTT2=
EXTT3=
EXTT4=
EXTT5=
EXTT6=
EXTT7=
EXTT8=
EXTT9=
EXTT10=
EXTT11=
PLAYORDER=
